HIERARCHY
ROOT Hips
{
	OFFSET 0.000000 0.000000 0.000000
	CHANNELS 6 Xposition Yposition Zposition Xrotation Yrotation Zrotation
	JOINT LeftUpLeg_virtual
	{
		OFFSET 0.000000 0.000000 0.000000
		CHANNELS 3 Xrotation Yrotation Zrotation
		JOINT LeftUpLeg
		{
			OFFSET 11.394100 -6.187798 -0.413800
			CHANNELS 3 Xrotation Yrotation Zrotation
			JOINT LeftLeg
			{
				OFFSET 0.430247 -32.302673 3.732800
				CHANNELS 3 Xrotation Yrotation Zrotation
				JOINT LeftFoot
				{
					OFFSET -0.430247 -48.264931 -6.423300
					CHANNELS 3 Xrotation Yrotation Zrotation
					JOINT LeftToeBase
					{
						OFFSET 4.230900 -16.068199 23.438400
						CHANNELS 3 Xrotation Yrotation Zrotation
						JOINT LeftToe_End
						{
							OFFSET 4.510700 0.695400 19.974600
							CHANNELS 3 Xrotation Yrotation Zrotation
							End Site
							{
								OFFSET 0 0 0
							}
						}
					}
				}
			}
		}
	}
	JOINT RightUpLeg_virtual
	{
		OFFSET 0.000000 0.000000 0.000000
		CHANNELS 3 Xrotation Yrotation Zrotation
		JOINT RightUpLeg
		{
			OFFSET -11.333700 -6.187798 -0.413800
			CHANNELS 3 Xrotation Yrotation Zrotation
			JOINT RightLeg
			{
				OFFSET -0.430392 -32.302628 3.733000
				CHANNELS 3 Xrotation Yrotation Zrotation
				JOINT RightFoot
				{
					OFFSET 0.430392 -48.264973 -6.423500
					CHANNELS 3 Xrotation Yrotation Zrotation
					JOINT RightToeBase
					{
						OFFSET -4.230900 -16.068199 23.438400
						CHANNELS 3 Xrotation Yrotation Zrotation
						JOINT RightToe_End
						{
							OFFSET -4.510700 0.695400 19.974600
							CHANNELS 3 Xrotation Yrotation Zrotation
							End Site
							{
								OFFSET 0 0 0
							}
						}
					}
				}
			}
		}
	}
	JOINT Spine_virtual
	{
		OFFSET 0.000000 0.000000 0.000000
		CHANNELS 3 Xrotation Yrotation Zrotation
		JOINT Spine
		{
			OFFSET -0.002400 12.777504 0.315300
			CHANNELS 3 Xrotation Yrotation Zrotation
			JOINT Spine1
			{
				OFFSET -0.002067 5.816869 0.032633
				CHANNELS 3 Xrotation Yrotation Zrotation
				JOINT Spine1_split
				{
					OFFSET -0.002067 5.816869 0.032633
					CHANNELS 3 Xrotation Yrotation Zrotation
					JOINT Spine2
					{
						OFFSET -0.002067 5.816869 0.032633
						CHANNELS 3 Xrotation Yrotation Zrotation
						JOINT Neck_virtual
						{
							OFFSET 0.000000 0.000000 0.000000
							CHANNELS 3 Xrotation Yrotation Zrotation
							JOINT Neck
							{
								OFFSET -0.003700 21.199493 -0.826900
								CHANNELS 3 Xrotation Yrotation Zrotation
								JOINT Head
								{
									OFFSET 0.000000 20.442200 4.834800
									CHANNELS 3 Xrotation Yrotation Zrotation
									JOINT HeadTop_End
									{
										OFFSET 0.000000 34.668396 4.968400
										CHANNELS 3 Xrotation Yrotation Zrotation
										End Site
										{
											OFFSET 0 0 0
										}
									}
								}
							}
						}
						JOINT LeftShoulder_virtual
						{
							OFFSET 0.000000 0.000000 0.000000
							CHANNELS 3 Xrotation Yrotation Zrotation
							JOINT LeftShoulder
							{
								OFFSET 3.288150 8.794197 -1.372250
								CHANNELS 3 Xrotation Yrotation Zrotation
								JOINT LeftShoulder_split
								{
									OFFSET 3.288150 8.794197 -1.372250
									CHANNELS 3 Xrotation Yrotation Zrotation
									JOINT LeftArm
									{
										OFFSET 11.953299 -2.279007 -0.146200
										CHANNELS 3 Xrotation Yrotation Zrotation
										JOINT LeftForeArm
										{
											OFFSET 18.448900 0.000000 0.000000
											CHANNELS 3 Xrotation Yrotation Zrotation
											JOINT LeftHand
											{
												OFFSET 29.527798 0.000000 0.000000
												CHANNELS 3 Xrotation Yrotation Zrotation
												End Site
												{
													OFFSET 0 0 0
												}
											}
										}
									}
								}
							}
						}
						JOINT RightShoulder_virtual
						{
							OFFSET 0.000000 0.000000 0.000000
							CHANNELS 3 Xrotation Yrotation Zrotation
							JOINT RightShoulder
							{
								OFFSET -3.249400 8.794197 -1.372250
								CHANNELS 3 Xrotation Yrotation Zrotation
								JOINT RightShoulder_split
								{
									OFFSET -3.249400 8.794197 -1.372250
									CHANNELS 3 Xrotation Yrotation Zrotation
									JOINT RightArm
									{
										OFFSET -11.953299 -2.279007 -0.146200
										CHANNELS 3 Xrotation Yrotation Zrotation
										JOINT RightForeArm
										{
											OFFSET -18.448900 0.000000 0.000000
											CHANNELS 3 Xrotation Yrotation Zrotation
											JOINT RightHand
											{
												OFFSET -29.527802 0.000000 0.000000
												CHANNELS 3 Xrotation Yrotation Zrotation
												End Site
												{
													OFFSET 0 0 0
												}
											}
										}
									}
								}
							}
						}
					}
				}
			}
		}
	}
}
MOTION
Frames: 10
Frame Time: 0.03333333
-0.763180 211.214828 1.523548 0.000000 0.000000 0.000000 -4.729388 6.735690 6.630176 -14.458220 17.645059 11.054356 8.874725 -2.991417 -0.334844 -9.758208 -0.960785 -1.575864 -2.287004 -0.616408 -2.332366 0.000000 0.000000 0.000000 -3.014090 2.728982 5.717881 -6.102007 -4.054702 -7.090281 13.423032 2.529470 0.227769 -16.493491 -3.701318 2.741132 -9.435951 -0.160986 -4.130500 0.000000 0.000000 0.000000 -0.472445 3.017441 5.088218 2.002373 -1.112389 1.945326 10.535814 -0.734454 3.745370 1.512423 1.603231 0.266257 0.000000 0.000000 0.000000 9.616332 -0.908374 3.187130 0.327571 0.380456 -4.254789 7.954599 8.477498 -7.774117 0.000000 0.000000 0.000000 11.132302 -0.986841 2.942021 0.202216 16.189621 -8.717802 -0.865537 -1.844330 -0.801851 1.314023 -12.573230 -60.614910 -0.660224 -48.216272 0.483762 0.000000 0.000000 0.000000 11.267072 -0.454194 3.427602 2.274266 2.631337 7.636818 0.437502 0.829902 -1.083374 -1.872159 7.843315 56.749088 1.582296 38.435114 -1.579192 0.000000 0.000000 0.000000 
-0.932855 211.205002 1.373253 0.000000 0.000000 0.000000 -4.632946 6.983748 6.516813 -14.788790 17.222465 11.147867 8.946242 -2.564355 -0.146175 -9.753535 -0.662152 -1.495445 -2.341773 -0.610914 -2.529964 0.000000 0.000000 0.000000 -2.826197 2.928165 5.517643 -6.215619 -4.283157 -6.978610 12.981475 2.465843 0.249368 -16.222628 -3.842121 2.660144 -9.526401 -0.196084 -3.967933 0.000000 0.000000 0.000000 -0.333744 2.738944 5.094073 1.981442 -1.160951 1.923115 10.602920 -0.752683 3.651471 1.136626 1.475561 0.013357 0.000000 0.000000 0.000000 9.611262 -0.911163 3.127241 -0.184440 0.392927 -4.466770 8.038718 8.163148 -7.609688 0.000000 0.000000 0.000000 11.153259 -0.960800 2.852353 0.193387 16.044217 -8.257478 -1.202459 -1.298285 -0.963905 0.675421 -12.688459 -60.623420 -0.749143 -48.267656 0.307260 0.000000 0.000000 0.000000 11.331960 -0.496095 3.329818 2.211899 2.497466 7.588855 0.156440 0.635304 -0.923636 -1.997920 7.983218 56.576858 1.505659 39.999999 -1.428436 0.000000 0.000000 0.000000 
-1.135263 210.999176 1.184856 0.000000 0.000000 0.000000 -4.277005 7.154425 6.283234 -15.570678 16.857569 11.285225 9.433197 -1.827634 0.052089 -10.255923 0.039182 -1.105219 -2.697615 -0.605397 -2.444791 0.000000 0.000000 0.000000 -2.313435 3.043189 5.255621 -6.780736 -4.461629 -6.802859 13.234095 2.515906 0.265313 -16.659084 -3.918373 2.767589 -9.936646 -0.187204 -3.831588 0.000000 0.000000 0.000000 0.150558 2.449815 5.050121 2.017885 -1.025429 1.973979 10.660972 -0.740790 3.513423 0.889742 1.185297 -0.164069 0.000000 0.000000 0.000000 9.680007 -0.881170 3.013202 -0.951687 0.452122 -4.721833 7.517707 7.551300 -7.083869 0.000000 0.000000 0.000000 11.062892 -0.907453 2.740790 0.123869 15.752481 -7.531293 -1.464235 -0.945153 -1.117777 0.009953 -12.847277 -60.575643 -0.535106 -48.789288 0.275491 0.000000 0.000000 0.000000 11.367920 -0.518673 3.181978 2.153892 2.426136 7.313733 -0.184910 0.151881 -0.737013 -1.405802 9.248491 55.974384 1.493290 42.237159 -1.283137 0.000000 0.000000 0.000000 
-1.294847 210.608902 0.898335 0.000000 0.000000 0.000000 -3.744363 7.313583 5.996729 -16.843504 16.466819 11.270091 10.513693 -0.999954 0.235289 -11.147787 0.904012 -0.584166 -3.118221 -0.603141 -2.097198 0.000000 0.000000 0.000000 -1.644498 3.176617 4.986381 -7.670454 -4.485778 -6.613458 14.004761 2.573165 0.219710 -18.067942 -3.968808 2.877431 -10.276295 -0.156312 -3.795741 0.000000 0.000000 0.000000 0.940858 2.298498 4.977628 2.099956 -0.778216 2.079589 10.729257 -0.750564 3.379964 0.782162 0.861154 -0.349406 0.000000 0.000000 0.000000 9.835054 -0.873747 2.873319 -1.815239 0.532773 -4.947479 6.425592 6.764389 -6.296542 0.000000 0.000000 0.000000 10.927599 -0.879698 2.628999 0.016694 15.287215 -6.712007 -1.526439 -0.869211 -1.251128 -0.754025 -13.030164 -60.325392 -0.162302 -49.518745 0.302426 0.000000 0.000000 0.000000 11.351483 -0.561435 3.021917 2.087422 2.510667 6.911377 -0.372365 -0.420582 -0.685804 -0.166808 11.426646 54.937547 1.555025 44.877874 -1.173380 0.000000 0.000000 0.000000 
-1.281132 210.114227 0.483482 0.000000 0.000000 0.000000 -3.141913 7.640542 5.754793 -18.680706 16.040694 10.966757 12.302771 -0.408932 0.372323 -12.097635 1.647059 -0.342118 -3.302814 -0.607016 -1.569485 0.000000 0.000000 0.000000 -1.013423 3.368654 4.805419 -8.619658 -4.304250 -6.485026 15.065881 2.480859 0.114915 -20.254644 -4.033817 2.795426 -10.026228 -0.094374 -3.850124 0.000000 0.000000 0.000000 1.912324 2.457853 4.912013 2.226200 -0.550658 2.177698 10.829429 -0.842932 3.281802 0.733561 0.610054 -0.416676 0.000000 0.000000 0.000000 10.071955 -0.948891 2.759173 -2.566411 0.611793 -5.052693 4.933164 5.896760 -5.383346 0.000000 0.000000 0.000000 10.835213 -0.931396 2.538583 -0.073579 14.644673 -5.937083 -1.252183 -0.824927 -1.308432 -1.433613 -13.303597 -59.665083 0.204136 -50.473606 0.316377 0.000000 0.000000 0.000000 11.311662 -0.679414 2.900223 1.999311 2.801665 6.453088 -0.456172 -0.982332 -0.895944 1.655813 14.265264 53.393897 1.661173 47.851223 -1.110988 0.000000 0.000000 0.000000 
-1.088926 209.603729 0.126423 0.000000 0.000000 0.000000 -2.552076 8.281123 5.662358 -21.075085 15.678686 10.297613 14.768532 -0.205545 0.416682 -12.733639 2.092105 -0.597227 -3.236098 -0.606411 -0.925966 0.000000 0.000000 0.000000 -0.434077 3.687301 4.764746 -9.477927 -3.980312 -6.475042 16.099910 2.192575 0.002371 -22.549724 -4.138608 2.601407 -9.263157 0.005076 -3.963557 0.000000 0.000000 0.000000 2.926843 3.058798 4.866843 2.313699 -0.469759 2.233132 10.993141 -1.052165 3.251217 0.821600 0.542529 -0.230908 0.000000 0.000000 0.000000 10.390924 -1.127473 2.698128 -3.071449 0.694180 -5.035712 3.199110 4.996916 -4.484864 0.000000 0.000000 0.000000 10.875515 -1.087965 2.493456 -0.097944 13.809733 -5.391148 -0.851082 -0.625657 -1.190658 -1.882014 -13.566215 -58.465135 0.446718 -51.638747 0.280760 0.000000 0.000000 0.000000 11.306286 -0.885208 2.846746 1.910994 3.279085 5.993691 -0.190995 -1.227043 -1.386329 3.861929 17.356774 51.266632 1.747643 51.401890 -1.053690 0.000000 0.000000 0.000000 
-0.855220 209.196686 -0.076908 0.000000 0.000000 0.000000 -1.993613 9.075566 5.761958 -23.749319 15.493553 9.370330 17.506432 -0.296024 0.369224 -12.893265 2.199392 -1.112823 -3.041993 -0.608400 -0.223549 0.000000 0.000000 0.000000 0.163780 4.157197 4.884583 -10.233882 -3.642589 -6.623945 16.746507 1.776654 -0.052416 -24.207133 -4.234278 2.690493 -8.847484 0.169797 -4.116120 0.000000 0.000000 0.000000 3.851136 4.026474 4.820668 2.377276 -0.587916 2.204610 11.269920 -1.360152 3.293758 1.035748 0.236049 0.070161 0.000000 0.000000 0.000000 10.828527 -1.403531 2.717074 -3.284632 0.749423 -4.951806 1.346565 4.024514 -3.660335 0.000000 0.000000 0.000000 11.111385 -1.343323 2.522167 -0.081375 12.822671 -5.073612 -0.343849 -0.197048 -0.848655 -2.043342 -13.773396 -56.832829 0.535696 -53.241550 0.257708 0.000000 0.000000 0.000000 11.399856 -1.185423 2.876969 1.813188 3.767841 5.532087 0.376828 -1.221812 -1.913775 6.100949 20.423078 48.686808 1.802362 55.744391 -1.043111 0.000000 0.000000 0.000000 
-0.533710 208.942902 -0.160774 0.000000 0.000000 0.000000 -1.381288 9.853376 5.990869 -26.310392 15.652077 8.311340 19.992539 -0.461574 0.225196 -12.956912 2.004508 -1.375502 -2.657116 -0.644141 0.429296 0.000000 0.000000 0.000000 0.987528 4.769147 5.057671 -10.810612 -3.428127 -6.883925 16.724324 1.341021 -0.059390 -25.000975 -4.301089 3.161475 -9.229090 0.397370 -4.251041 0.000000 0.000000 0.000000 4.650511 5.133120 4.757018 2.442192 -0.851974 2.070509 11.705624 -1.667380 3.404960 1.148354 -0.121806 0.240933 0.000000 0.000000 0.000000 11.444614 -1.691390 2.838830 -3.233793 0.754189 -4.849088 -0.555435 3.020534 -2.956407 0.000000 0.000000 0.000000 11.606729 -1.611061 2.633263 -0.043046 11.760362 -4.953100 0.100483 0.317402 -0.299074 -1.779594 -14.033135 -55.032344 0.584417 -55.470323 0.327714 0.000000 0.000000 0.000000 11.729941 -1.514860 2.988391 1.724105 4.168410 4.970522 0.810696 -1.021021 -2.396817 8.209063 23.238424 45.752415 1.717403 60.721167 -0.967841 0.000000 0.000000 0.000000 
-0.220586 208.856674 -0.190693 0.000000 0.000000 0.000000 -0.674039 10.470049 6.234146 -28.413370 16.106735 7.265840 21.645068 -0.438804 -0.013465 -13.267447 1.588613 -0.924782 -2.427016 -0.709866 1.085159 0.000000 0.000000 0.000000 2.101133 5.429366 5.191710 -11.130598 -3.485571 -7.117307 16.118058 0.787714 -0.037039 -25.384145 -4.368773 3.610367 -9.698406 0.605814 -4.260436 0.000000 0.000000 0.000000 5.439758 6.067119 4.631523 2.522006 -1.158321 1.831732 12.330858 -1.854965 3.560084 0.956916 -0.310742 0.159944 0.000000 0.000000 0.000000 12.234601 -1.889755 3.041025 -3.143420 0.694245 -4.813592 -2.527358 2.022661 -2.334551 0.000000 0.000000 0.000000 12.351185 -1.782975 2.812055 0.000075 10.699829 -4.915976 0.546664 0.604715 0.178195 -1.280319 -14.298552 -53.389266 0.741288 -58.049757 0.529161 0.000000 0.000000 0.000000 12.357247 -1.766835 3.153473 1.668776 4.397727 4.345866 0.925115 -0.655873 -2.820594 9.983010 25.691036 42.630636 1.443131 65.728522 -0.765400 0.000000 0.000000 0.000000 
0.039069 208.847961 -0.147900 0.000000 0.000000 0.000000 0.238405 10.832314 6.335407 -30.009751 16.751010 6.344690 22.360299 -0.158894 -0.291668 -13.947321 1.076740 0.335341 -2.621296 -0.798225 1.827168 0.000000 0.000000 0.000000 3.446126 5.766028 5.228292 -11.448917 -3.785548 -7.261475 15.425740 0.056291 0.026393 -25.998697 -4.415613 3.754967 -9.560597 0.724870 -4.129884 0.000000 0.000000 0.000000 6.379681 6.553021 4.467839 2.617618 -1.388787 1.479541 13.141751 -1.835492 3.710426 0.622717 -0.389725 -0.052612 0.000000 0.000000 0.000000 13.153376 -1.921477 3.273325 -3.221991 0.594345 -4.829526 -4.618842 1.111693 -1.696258 0.000000 0.000000 0.000000 13.342153 -1.778540 3.017467 0.015886 9.760765 -4.690263 1.181101 0.567928 0.516383 -0.635909 -14.493926 -52.177526 0.983116 -60.520920 0.833252 0.000000 0.000000 0.000000 13.297037 -1.840983 3.319959 1.592017 4.392017 3.669295 0.854535 -0.132320 -2.978743 11.412391 27.911525 39.506142 1.051069 69.959258 -0.521068 0.000000 0.000000 0.000000 
